<svg viewBox="0 0 512 512" xmlns="http://www.w3.org/2000/svg" xmlns:xlink="http://www.w3.org/1999/xlink" id="Layer_1" overflow="hidden"><g><path d="M308.3 508.5C305.8 508.6 304.2 508.8 302.6 508.8 268.4 508.8 234.3 508.7 200.1 508.9 195.3 508.9 194 507.6 194 502.8 194.1 423.2 194.1 343.5 194.1 263.9 194.1 261.8 194.1 259.7 194.1 257 175.5 257 157.4 257 139 257 139 228.6 139 200.7 139 172 140.9 172 142.7 172 144.4 172 159.4 172 174.4 171.9 189.4 172.1 193.2 172.1 194.2 171 194.2 167.3 194 145 194 122.6 194.2 100.3 194.3 84.7 196.8 69.5 204 55.4 214.3 35.5 230.6 22.6 251.2 14.6 268 8 285.7 5.6 303.5 5.3 332.5 4.9 361.5 5.1 390.5 5 393.2 5 395.4 4.9 395.4 8.7 395.3 36.2 395.3 63.7 395.3 91.2 395.3 91.5 395.2 91.8 394.8 93.1 393.1 93.1 391.2 93.1 389.3 93.1 371.3 93.1 353.3 93 335.3 93.1 324.9 93.1 316.5 97.3 311.2 106.4 309.6 109.1 308.6 112.6 308.6 115.8 308.3 132.8 308.6 149.8 308.4 166.8 308.4 170.8 309.6 171.9 313.5 171.9 338.5 171.7 363.5 171.8 388.5 171.8 390.5 171.8 392.4 171.8 395.8 171.8 392.3 200.4 388.9 228.4 385.4 256.7 359.4 256.7 334.1 256.7 308.3 256.7 308.3 340.8 308.3 424.4 308.3 508.5Z" fill="#ff2e63"/></g></svg>