<svg viewBox="0 0 512 512" xmlns="http://www.w3.org/2000/svg" xmlns:xlink="http://www.w3.org/1999/xlink" id="Layer_1" overflow="hidden">
    <g>
        <path d="M505 257C505 291.8 504.3 326.7 505.2 361.5 506.7 423.1 468 470.7 418.7 491.9 398.9 500.4 378.1 504.9 356.6 504.9 289.3 505 221.9 505.9 154.6 504.6 103.9 503.6 62.2 482.4 32.3 440.6 16.6 418.6 9.1 393.6 9.1 366.5 9.1 294.8 9.1 223.2 9.1 151.5 9.1 93 37.6 52.1 88.2 25.5 110.2 14 134.1 9.1 159 9 224.3 9 289.7 8.6 355 9.2 405.7 9.6 448 29 479.2 69.8 496.6 92.6 505 118.8 505 147.6 505 184 505 220.5 505 257ZM46 257C46 293.7 46 330.3 46 367 46 383.4 49.8 398.8 58.3 412.7 80.6 449.2 114.3 467 156.1 467.7 223.2 468.7 290.4 468.1 357.6 467.9 374.1 467.9 390.1 464.5 405 457.4 445.6 438 468.3 407.1 468.1 360.7 467.7 289.7 468 218.7 468 147.7 468 127.6 462.3 109.2 450.4 93 427.4 61.9 395.6 46.6 357.6 46.2 290.6 45.4 223.6 45.9 156.6 46 142.3 46 128.5 48.9 115.1 53.9 78.3 67.6 44.1 102.3 45.7 153.4 46.9 188 46 222.5 46 257Z" fill="#ff2e63"/>
        <path d="M257.6 363C193.1 363 141.1 311.6 141 247.6 140.9 184.6 193.3 133 257.4 133 321.7 132.9 373.9 184.4 374 247.9 374 311.3 321.9 362.9 257.6 363ZM257.6 326C301.5 326 337.1 290.9 337 247.7 336.9 204.9 301.3 169.9 257.6 169.9 213.7 169.9 177.9 204.8 177.9 247.9 178 291.1 213.7 326.1 257.6 326Z" fill="#ff2e63"/>
        <path d="M387.5 98C401 98 412 109.5 412 123.6 411.9 137.7 400.8 149.1 387.3 149 374 148.9 363.1 137.5 363.1 123.7 363 109.6 374 98 387.5 98Z" fill="#ff2e63"/>
    </g>
</svg>