<svg viewBox="0 0 512 512" xmlns="http://www.w3.org/2000/svg" xmlns:xlink="http://www.w3.org/1999/xlink" id="Layer_1" overflow="hidden"><g><path d="M173.5 508.7C173.5 506.3 173.5 504 173.5 501.7 173.5 394 173.5 286.4 173.5 178.7 173.5 175.7 173.3 173.3 177.7 173.3 209.5 173.5 241.4 173.4 273.2 173.4 274 173.4 274.8 173.6 276.1 173.8 276.1 187.8 276.1 201.6 276.1 215.5 276.5 215.6 276.8 215.8 277.2 215.9 281.2 210.7 285 205.3 289.2 200.2 301.4 185.2 316.7 174.2 334.7 167.6 344.5 164 355.2 161.8 365.5 161.3 379.7 160.7 394.2 160.9 408.2 163.3 431.2 167.2 451.5 177.4 468.3 194.1 484.2 209.8 494.7 228.7 500.4 250 503.4 261.3 505.3 272.9 507.1 284.4 508.3 292.4 508.9 300.6 508.9 308.6 509 373.6 509 438.6 509 503.6 509 505.2 508.9 506.8 508.8 508.9 506.9 508.9 505.3 508.9 503.7 508.9 473 508.9 442.4 508.8 411.7 509 406.6 509 405.7 507.3 405.7 502.7 405.8 442.9 406 383 405.6 323.2 405.5 312.7 404.5 301.8 401.8 291.7 396.9 274 385.7 261.2 367.9 254.7 352.9 249.2 337.7 248.2 322.3 252.1 305.3 256.4 293.6 267.7 284.8 282.6 278 294.1 276.7 306.8 276.6 319.5 276.2 380.2 276.4 440.8 276.4 501.5 276.4 503.8 276.4 506.1 276.4 508.6 241.9 508.7 208 508.7 173.5 508.7Z" fill="#ff2e63"/><path d="M109.1 342.6C109.1 395.9 109 449.2 109.2 502.5 109.2 507.3 108.2 509.1 102.9 509 72.4 508.7 41.9 508.7 11.4 509 6.4 509 5.3 507.3 5.3 502.7 5.4 395.6 5.4 288.4 5.3 181.3 5.3 177 6.5 175.5 10.9 175.5 41.7 175.7 72.5 175.7 103.4 175.5 108.2 175.5 109.1 177.3 109.1 181.6 109.1 235.3 109.1 289 109.1 342.6Z" fill="#ff2e63"/><path d="M56.1 4.8C89 4 108.7 27.9 108.8 57.2 108.9 87.2 87.9 109.6 54.9 109.5 24.2 109.5 2.5 87.5 2.6 56.4 2.7 27.3 23.8 3.8 56.1 4.8Z" fill="#ff2e63"/></g></svg>