<svg viewBox="0 0 512 512" xmlns="http://www.w3.org/2000/svg" xmlns:xlink="http://www.w3.org/1999/xlink" id="Layer_1" overflow="hidden"><g><path d="M10.8 507.9C17.7 487.2 24.2 467.8 30.7 448.4 37.2 429.2 43 409.7 50.4 390.8 54.2 381.2 53 374 48.2 365 22 316.4 14.2 264.3 23.3 210.1 31 164.2 50.5 123.6 82 89.1 133.9 32.4 198.7 5.2 275.3 8.4 331.4 10.7 381 31.2 423.3 68.3 462.7 102.8 488.4 145.7 500.3 196.7 509.9 237.8 508.8 278.7 497 319.2 482 370.5 453.3 412.8 410.6 445 351.3 489.8 284.8 503.7 212.3 489.6 190.5 485.4 169.7 477.6 150.1 467 146.9 465.3 144.2 464.9 140.7 466.1 103.5 478.1 66.2 490 29 501.9 23.4 503.7 17.7 505.6 10.8 507.9ZM74.1 445.2C76.1 444.7 77 444.5 77.9 444.2 101.2 436.8 124.5 429.3 147.9 422.1 150.1 421.4 153.1 422 155.2 423 165.3 428 175 434 185.4 438.4 228.2 456.5 272.3 459.4 316.9 447 370.1 432.1 410.9 400.4 438.8 352.5 462.7 311.5 470.9 267.2 463.5 220.6 454.1 161.3 423.7 114.7 373.4 81.6 329.8 53 281.8 43.3 230.6 51.4 186.5 58.4 148.8 78.5 117.7 110.7 91 138.3 73.1 170.9 65.3 208.4 54.2 262.1 62.4 312.9 92.2 359.2 98.2 368.5 98 375.6 94.4 385.1 87.1 404.6 81 424.5 74.1 445.2Z" fill="#fff"/><path d="M389.3 321.8C389 341.1 379.9 355.8 361.5 365 343.4 374 325 376.3 306.1 368.9 289.1 362.2 271.9 355.7 255.5 347.6 233.9 336.9 216.2 320.9 200 303.2 182.1 283.6 166.9 261.8 154.4 238.5 145.5 222 140.1 204.5 142 185.3 144 164.9 153.5 148.6 169.5 136.3 172.7 133.9 177.5 132.8 181.6 132.4 186.9 132 192.2 132.8 197.5 133.2 201.9 133.6 204.3 136.7 205.8 140.3 209.7 149.9 213.2 159.5 216.9 169.2 219.4 175.7 221.3 182.5 224.3 188.8 228 196.6 225.7 203.1 220.9 209.1 216.8 214.2 212.5 219.1 207.8 223.5 203.9 227.2 203.2 231 205.8 235.5 217.3 256 231.3 274.4 249.8 289.3 262 299.1 275.5 306.4 289.5 313.2 293.6 315.2 297.6 314.9 300.8 311.2 307.7 303.3 314.7 295.5 321.5 287.5 325.9 282.4 328.1 281.4 334 284.4 351.1 293 368 301.9 385 310.8 389 313 390 316.6 389.3 321.8Z" fill="#fff"/></g></svg>