<svg viewBox="0 0 512 512" xmlns="http://www.w3.org/2000/svg" xmlns:xlink="http://www.w3.org/1999/xlink" id="Layer_1" overflow="hidden"><g><path d="M260.4 449C203.3 447.2 149 445.8 94.7 443.7 83 443.2 71.1 441.4 59.7 438.7 38.3 433.7 23.5 420.8 15.9 399.7 9.8 382.7 7.6 365.2 6 347.4 2.5 305.6 2.5 263.8 4.2 222 5.2 198.4 5.8 174.6 12.1 151.7 15.9 138 20.5 124.6 31.6 114.7 43.3 104.2 57 97.9 72.6 97.2 115.4 95.1 158.1 92.5 200.9 92.1 258.5 91.5 316.2 92.3 373.8 93.4 398.7 93.9 423.8 95.2 448.5 98.4 471.1 101.4 488 114 497 136 503.9 152.9 506.5 170.6 508 188.6 511.9 233.7 512 278.8 509.8 323.9 508.7 346.8 507.6 369.8 501.1 392.1 493.7 417.7 478 434.6 451.8 440.4 441.6 442.6 431 443.4 420.6 443.8 366.2 445.7 311.9 447.4 260.4 449ZM205.1 335.3C250.7 311.7 295.8 288.3 341.8 264.4 295.9 240.4 250.8 216.9 205.1 193 205.1 240.7 205.1 287.6 205.1 335.3Z" fill="#fff"/></g></svg>